<svg xmlns="http://www.w3.org/2000/svg" viewBox="0 0 24 24">
  <path fill="currentColor" fill-rule="evenodd" d="M1,12 A11,11 0 1,0 23,12 A11,11 0 1,0 1,12 Z M11,9 h2 v2 h2 v2 h-2 v2 h-2 v-2 h-2 v-2 h2 Z M6,5 h2 v1 h1 v2 h-1 v1 h-2 v-1 h-1 v-2 h1 Z M16,5 h2 v1 h1 v2 h-1 v1 h-2 v-1 h-1 v-2 h1 Z M6,15 h2 v1 h1 v2 h-1 v1 h-2 v-1 h-1 v-2 h1 Z M16,15 h2 v1 h1 v2 h-1 v1 h-2 v-1 h-1 v-2 h1 Z M11.5,3.5 h1 v1 h1.5 v1 h-1.5 v1 h-1 v-1 h-1.5 v-1 h1.5 Z M11.5,17.5 h1 v1 h1.5 v1 h-1.5 v1 h-1 v-1 h-1.5 v-1 h1.5 Z M4.5,10.5 h1 v1 h1 v1 h-1 v1 h-1 v-1 h-1 v-1 h1 Z M18.5,10.5 h1 v1 h1 v1 h-1 v1 h-1 v-1 h-1 v-1 h1 Z"/>
</svg>
