<svg xmlns="http://www.w3.org/2000/svg" viewBox="0 0 24 24" fill="currentColor">
  <!-- Central Tableau cross. Filled, axis-aligned geometry stays crisp at 16–24 px. -->
  <path d="M11 7h2v4h4v2h-4v4h-2v-4H7v-2h4z"/>

  <!-- Four medium crosses. -->
  <path d="M5.25 3.5h1.5v1.75H8.5v1.5H6.75V8.5h-1.5V6.75H3.5v-1.5h1.75z"/>
  <path d="M17.25 3.5h1.5v1.75h1.75v1.5h-1.75V8.5h-1.5V6.75H15.5v-1.5h1.75z"/>
  <path d="M5.25 15.5h1.5v1.75H8.5v1.5H6.75v1.75h-1.5v-1.75H3.5v-1.5h1.75z"/>
  <path d="M17.25 15.5h1.5v1.75h1.75v1.5h-1.75v1.75h-1.5v-1.75H15.5v-1.5h1.75z"/>

  <!-- Four small cardinal crosses complete the recognizable Tableau mark. -->
  <path d="M11.4.25h1.2v1.2h1.2v1.2h-1.2v1.2h-1.2v-1.2h-1.2v-1.2h1.2z"/>
  <path d="M11.4 20.15h1.2v1.2h1.2v1.2h-1.2v1.2h-1.2v-1.2h-1.2v-1.2h1.2z"/>
  <path d="M1.45 10.2h1.2v1.2h1.2v1.2h-1.2v1.2h-1.2v-1.2H.25v-1.2h1.2z"/>
  <path d="M21.35 10.2h1.2v1.2h1.2v1.2h-1.2v1.2h-1.2v-1.2h-1.2v-1.2h1.2z"/>
</svg>
